<svg width="1280" height="600" viewBox="0 0 1280 600" fill="none" xmlns="http://www.w3.org/2000/svg">
<rect width="1280" height="600" fill="white"/>
<path d="M523.115 346.548C523.115 350.454 522.424 354.645 521.04 359.121C519.738 363.597 517.541 367.747 514.448 371.572C511.437 375.397 507.49 378.612 502.607 381.216C497.725 383.739 491.743 385 484.663 385H364.18C361.901 385 359.785 384.593 357.832 383.779C355.879 382.965 354.17 381.867 352.705 380.483C351.322 379.019 350.223 377.31 349.409 375.356C348.595 373.403 348.188 371.287 348.188 369.009V225.942C348.188 223.745 348.595 221.67 349.409 219.717C350.223 217.764 351.322 216.055 352.705 214.59C354.17 213.125 355.879 211.986 357.832 211.172C359.785 210.358 361.901 209.951 364.18 209.951H470.381C474.287 209.951 478.478 210.643 482.954 212.026C487.43 213.41 491.58 215.648 495.405 218.74C499.312 221.751 502.526 225.698 505.049 230.581C507.653 235.464 508.955 241.445 508.955 248.525V254.507C508.955 260.122 508.019 266.185 506.147 272.695C504.276 279.124 501.265 285.228 497.114 291.006C500.695 293.203 504.032 295.848 507.124 298.94C510.298 302.033 513.065 305.614 515.425 309.683C517.785 313.752 519.657 318.35 521.04 323.477C522.424 328.604 523.115 334.259 523.115 340.444V346.548ZM491.377 340.444C491.377 336.294 490.726 332.591 489.424 329.336C488.122 325.999 486.291 323.151 483.931 320.791C481.571 318.431 478.722 316.641 475.386 315.42C472.049 314.118 468.306 313.467 464.155 313.467H392.622V281.484H449.873C454.023 281.484 457.767 280.874 461.104 279.653C464.44 278.351 467.288 276.52 469.648 274.16C472.008 271.8 473.799 268.993 475.02 265.737C476.322 262.401 476.973 258.657 476.973 254.507V248.525C476.973 243.968 474.775 241.689 470.381 241.689H379.927V353.262H484.663C485.233 353.262 485.924 353.221 486.738 353.14C487.552 353.058 488.285 352.814 488.936 352.407C489.587 352 490.156 351.309 490.645 350.332C491.133 349.355 491.377 348.013 491.377 346.304V340.444ZM706.099 385H545.332V326.284C545.332 323.273 545.658 320.099 546.309 316.763C547.041 313.345 548.14 309.967 549.604 306.631C551.069 303.294 552.941 300.12 555.22 297.109C557.58 294.098 560.387 291.453 563.643 289.175C566.979 286.815 570.804 284.943 575.117 283.56C579.43 282.176 584.313 281.484 589.766 281.484H661.299C665.612 281.484 668.786 280.426 670.82 278.311C672.936 276.113 673.994 272.939 673.994 268.789V254.751C673.994 250.438 672.936 247.183 670.82 244.985C668.704 242.788 665.612 241.689 661.543 241.689H559.614V209.951H661.543C666.914 209.951 671.756 210.643 676.069 212.026C680.382 213.41 684.167 215.282 687.422 217.642C690.758 219.92 693.607 222.565 695.967 225.576C698.327 228.587 700.239 231.761 701.704 235.098C703.25 238.353 704.349 241.689 705 245.107C705.732 248.444 706.099 251.577 706.099 254.507V268.789C706.099 277.008 704.593 283.966 701.582 289.663C698.652 295.278 694.95 299.876 690.474 303.457C685.998 306.956 681.156 309.52 675.947 311.147C670.82 312.694 666.019 313.467 661.543 313.467H589.766C587.161 313.467 585.086 313.833 583.54 314.565C581.994 315.298 580.773 316.274 579.878 317.495C579.064 318.716 578.454 320.099 578.047 321.646C577.64 323.192 577.314 324.738 577.07 326.284V353.262H706.099V385ZM913.74 311.758C913.74 322.419 911.868 332.225 908.125 341.177C904.463 350.129 899.377 357.86 892.866 364.37C886.356 370.799 878.625 375.845 869.673 379.507C860.721 383.169 850.996 385 840.498 385H754.805C752.526 385 750.41 384.593 748.457 383.779C746.504 382.965 744.795 381.867 743.33 380.483C741.947 379.019 740.848 377.31 740.034 375.356C739.22 373.403 738.813 371.287 738.813 369.009V225.942C738.813 223.745 739.22 221.67 740.034 219.717C740.848 217.764 741.947 216.055 743.33 214.59C744.795 213.125 746.504 211.986 748.457 211.172C750.41 210.358 752.526 209.951 754.805 209.951H840.498C850.996 209.951 860.721 211.782 869.673 215.444C878.625 219.106 886.356 224.193 892.866 230.703C899.377 237.132 904.463 244.863 908.125 253.896C911.868 262.848 913.74 272.614 913.74 283.193V311.758ZM882.002 283.193C882.002 277.008 880.985 271.353 878.95 266.226C876.997 261.099 874.189 256.745 870.527 253.164C866.865 249.502 862.471 246.694 857.344 244.741C852.298 242.707 846.683 241.689 840.498 241.689H770.552V353.262H840.498C846.683 353.262 852.298 352.285 857.344 350.332C862.471 348.298 866.865 345.49 870.527 341.909C874.189 338.247 876.997 333.893 878.95 328.848C880.985 323.721 882.002 318.024 882.002 311.758V283.193Z" fill="black"/>
</svg>
